# xmcd CD database file
#
# Track frame offsets:
#	150
#	17171
#	36785
#	55026
#
# Disc length: 951 seconds
#
# Revision: 0
# Processed by: cddbd v1.5.1PL0 Copyright (c) Steve Scherf et al.
# Submitted via: CDex 1.51
#
DISCID=2803b504
DTITLE=The Daisycutters - We Deserve Better
DYEAR=2004
DGENRE=Rock
TTITLE0=We Deserve Better
TTITLE1=Sick Day
TTITLE2=It's A Shame About Us (demo)
TTITLE3=Seven Months And Counting (demo)
EXTD=YEAR: 2004
EXTT0=
EXTT1=
EXTT2=
EXTT3=
PLAYORDER=
